<mxfile host="app.diagrams.net" modified="2021-04-27T12:02:22.913Z" agent="5.0 (Windows NT 10.0; Win64; x64) AppleWebKit/537.36 (KHTML, like Gecko) Chrome/90.0.4430.85 Safari/537.36" etag="XB73FDU9GviUZYxgnN4y" version="14.6.1" type="github">
  <diagram id="T_wgZtGjV1-MeDOwSWs3" name="Page-1">
    <mxGraphModel dx="1382" dy="834" grid="1" gridSize="10" guides="1" tooltips="1" connect="1" arrows="1" fold="1" page="1" pageScale="1" pageWidth="3300" pageHeight="4681" math="0" shadow="0">
      <root>
        <mxCell id="0" />
        <mxCell id="1" parent="0" />
        <mxCell id="9qD8Qi3YVw1oicKCHrEl-37" value="" style="rounded=1;whiteSpace=wrap;html=1;align=left;dashed=1;" vertex="1" parent="1">
          <mxGeometry x="1420" y="463" width="150" height="110" as="geometry" />
        </mxCell>
        <mxCell id="9qD8Qi3YVw1oicKCHrEl-13" style="edgeStyle=orthogonalEdgeStyle;rounded=0;orthogonalLoop=1;jettySize=auto;html=1;" edge="1" parent="1" source="9qD8Qi3YVw1oicKCHrEl-3" target="9qD8Qi3YVw1oicKCHrEl-7">
          <mxGeometry relative="1" as="geometry" />
        </mxCell>
        <mxCell id="9qD8Qi3YVw1oicKCHrEl-3" value="route handler" style="rounded=0;whiteSpace=wrap;html=1;align=center;fillColor=#d5e8d4;strokeColor=#82b366;" vertex="1" parent="1">
          <mxGeometry x="490" y="500" width="100" height="40" as="geometry" />
        </mxCell>
        <mxCell id="9qD8Qi3YVw1oicKCHrEl-12" style="edgeStyle=orthogonalEdgeStyle;rounded=0;orthogonalLoop=1;jettySize=auto;html=1;" edge="1" parent="1" source="9qD8Qi3YVw1oicKCHrEl-4" target="9qD8Qi3YVw1oicKCHrEl-3">
          <mxGeometry relative="1" as="geometry" />
        </mxCell>
        <mxCell id="9qD8Qi3YVw1oicKCHrEl-4" value="&lt;span&gt;Initializers&lt;/span&gt;" style="strokeWidth=2;html=1;shape=mxgraph.flowchart.multi-document;whiteSpace=wrap;align=center;fillColor=#f8cecc;strokeColor=#b85450;" vertex="1" parent="1">
          <mxGeometry x="310" y="490" width="100" height="60" as="geometry" />
        </mxCell>
        <mxCell id="9qD8Qi3YVw1oicKCHrEl-19" style="edgeStyle=orthogonalEdgeStyle;rounded=0;orthogonalLoop=1;jettySize=auto;html=1;" edge="1" parent="1" source="9qD8Qi3YVw1oicKCHrEl-6">
          <mxGeometry relative="1" as="geometry">
            <mxPoint x="190" y="640" as="targetPoint" />
            <Array as="points">
              <mxPoint x="1494" y="640" />
            </Array>
          </mxGeometry>
        </mxCell>
        <mxCell id="9qD8Qi3YVw1oicKCHrEl-6" value="pipe" style="strokeWidth=2;html=1;shape=mxgraph.flowchart.multi-document;whiteSpace=wrap;align=center;fillColor=#f8cecc;strokeColor=#b85450;" vertex="1" parent="1">
          <mxGeometry x="1440" y="490" width="110" height="60" as="geometry" />
        </mxCell>
        <mxCell id="9qD8Qi3YVw1oicKCHrEl-14" style="edgeStyle=orthogonalEdgeStyle;rounded=0;orthogonalLoop=1;jettySize=auto;html=1;entryX=0;entryY=0.5;entryDx=0;entryDy=0;" edge="1" parent="1" source="9qD8Qi3YVw1oicKCHrEl-7" target="9qD8Qi3YVw1oicKCHrEl-10">
          <mxGeometry relative="1" as="geometry" />
        </mxCell>
        <mxCell id="9qD8Qi3YVw1oicKCHrEl-22" style="edgeStyle=orthogonalEdgeStyle;rounded=0;orthogonalLoop=1;jettySize=auto;html=1;entryX=0;entryY=0.5;entryDx=0;entryDy=0;entryPerimeter=0;" edge="1" parent="1" source="9qD8Qi3YVw1oicKCHrEl-7" target="9qD8Qi3YVw1oicKCHrEl-21">
          <mxGeometry relative="1" as="geometry">
            <Array as="points">
              <mxPoint x="760" y="420" />
            </Array>
          </mxGeometry>
        </mxCell>
        <mxCell id="9qD8Qi3YVw1oicKCHrEl-7" value="before http hander" style="shape=dataStorage;whiteSpace=wrap;html=1;fixedSize=1;align=center;fillColor=#f5f5f5;strokeColor=#666666;fontColor=#333333;" vertex="1" parent="1">
          <mxGeometry x="680" y="500" width="150" height="40" as="geometry" />
        </mxCell>
        <mxCell id="9qD8Qi3YVw1oicKCHrEl-16" style="edgeStyle=orthogonalEdgeStyle;rounded=0;orthogonalLoop=1;jettySize=auto;html=1;" edge="1" parent="1" source="9qD8Qi3YVw1oicKCHrEl-9" target="9qD8Qi3YVw1oicKCHrEl-11">
          <mxGeometry relative="1" as="geometry" />
        </mxCell>
        <mxCell id="9qD8Qi3YVw1oicKCHrEl-9" value="after http hander" style="shape=dataStorage;whiteSpace=wrap;html=1;fixedSize=1;align=center;fillColor=#f5f5f5;strokeColor=#666666;fontColor=#333333;" vertex="1" parent="1">
          <mxGeometry x="1060" y="500" width="150" height="40" as="geometry" />
        </mxCell>
        <mxCell id="9qD8Qi3YVw1oicKCHrEl-15" style="edgeStyle=orthogonalEdgeStyle;rounded=0;orthogonalLoop=1;jettySize=auto;html=1;entryX=0;entryY=0.5;entryDx=0;entryDy=0;" edge="1" parent="1" source="9qD8Qi3YVw1oicKCHrEl-10" target="9qD8Qi3YVw1oicKCHrEl-9">
          <mxGeometry relative="1" as="geometry" />
        </mxCell>
        <mxCell id="9qD8Qi3YVw1oicKCHrEl-10" value="http handler" style="rounded=0;whiteSpace=wrap;html=1;align=center;fillColor=#d5e8d4;strokeColor=#82b366;" vertex="1" parent="1">
          <mxGeometry x="900" y="500" width="100" height="40" as="geometry" />
        </mxCell>
        <mxCell id="9qD8Qi3YVw1oicKCHrEl-18" style="edgeStyle=orthogonalEdgeStyle;rounded=0;orthogonalLoop=1;jettySize=auto;html=1;" edge="1" parent="1" source="9qD8Qi3YVw1oicKCHrEl-11" target="9qD8Qi3YVw1oicKCHrEl-6">
          <mxGeometry relative="1" as="geometry" />
        </mxCell>
        <mxCell id="9qD8Qi3YVw1oicKCHrEl-11" value="page render" style="rounded=0;whiteSpace=wrap;html=1;align=center;fillColor=#d5e8d4;strokeColor=#82b366;" vertex="1" parent="1">
          <mxGeometry x="1270" y="500" width="100" height="40" as="geometry" />
        </mxCell>
        <mxCell id="9qD8Qi3YVw1oicKCHrEl-20" value="" style="endArrow=classic;html=1;entryX=0;entryY=0.5;entryDx=0;entryDy=0;entryPerimeter=0;" edge="1" parent="1" target="9qD8Qi3YVw1oicKCHrEl-4">
          <mxGeometry width="50" height="50" relative="1" as="geometry">
            <mxPoint x="200" y="520" as="sourcePoint" />
            <mxPoint x="240" y="530" as="targetPoint" />
          </mxGeometry>
        </mxCell>
        <mxCell id="9qD8Qi3YVw1oicKCHrEl-23" style="edgeStyle=orthogonalEdgeStyle;rounded=0;orthogonalLoop=1;jettySize=auto;html=1;entryX=0.5;entryY=0;entryDx=0;entryDy=0;" edge="1" parent="1" source="9qD8Qi3YVw1oicKCHrEl-21" target="9qD8Qi3YVw1oicKCHrEl-9">
          <mxGeometry relative="1" as="geometry" />
        </mxCell>
        <mxCell id="9qD8Qi3YVw1oicKCHrEl-21" value="&lt;span&gt;intercepetors&lt;/span&gt;" style="strokeWidth=2;html=1;shape=mxgraph.flowchart.multi-document;whiteSpace=wrap;align=center;fillColor=#f8cecc;strokeColor=#b85450;" vertex="1" parent="1">
          <mxGeometry x="893" y="390" width="114" height="60" as="geometry" />
        </mxCell>
        <mxCell id="9qD8Qi3YVw1oicKCHrEl-24" value="" style="shape=note;whiteSpace=wrap;html=1;backgroundOutline=1;darkOpacity=0.05;align=left;fillColor=#fff2cc;strokeColor=#d6b656;" vertex="1" parent="1">
          <mxGeometry x="893" y="160" width="223" height="200" as="geometry" />
        </mxCell>
        <mxCell id="9qD8Qi3YVw1oicKCHrEl-25" value="加载loading状态（loadingInterceptor）&lt;br&gt;拦截请求异常（exceptionInterceptor）&lt;br&gt;请求超时拦截（timeoutInterceptor）&lt;br&gt;操作提示成功（operationTipsInterceptor）" style="text;html=1;strokeColor=none;fillColor=none;align=left;verticalAlign=middle;whiteSpace=wrap;rounded=0;" vertex="1" parent="1">
          <mxGeometry x="893" y="205" width="233" height="110" as="geometry" />
        </mxCell>
        <mxCell id="9qD8Qi3YVw1oicKCHrEl-26" value="" style="shape=note;whiteSpace=wrap;html=1;backgroundOutline=1;darkOpacity=0.05;align=left;fillColor=#fff2cc;strokeColor=#d6b656;" vertex="1" parent="1">
          <mxGeometry x="310" y="160" width="260" height="200" as="geometry" />
        </mxCell>
        <mxCell id="9qD8Qi3YVw1oicKCHrEl-27" value="初始化国际化配置(I18NModule)&lt;br&gt;初始化权限配置（PermissionModule）&lt;br&gt;初始化拦截器配置（HttpInterceptorsModule）" style="text;html=1;strokeColor=none;fillColor=none;align=left;verticalAlign=middle;whiteSpace=wrap;rounded=0;" vertex="1" parent="1">
          <mxGeometry x="313.5" y="200" width="247" height="110" as="geometry" />
        </mxCell>
        <mxCell id="9qD8Qi3YVw1oicKCHrEl-28" value="" style="shape=note;whiteSpace=wrap;html=1;backgroundOutline=1;darkOpacity=0.05;align=left;fillColor=#fff2cc;strokeColor=#d6b656;" vertex="1" parent="1">
          <mxGeometry x="1440" y="160" width="223" height="200" as="geometry" />
        </mxCell>
        <mxCell id="9qD8Qi3YVw1oicKCHrEl-29" value="容量管道（CapacityPipe）&lt;br&gt;空处理管道（NilPipe）&lt;br&gt;高亮管道（HighLightPipe）&lt;br&gt;百分比（PercentagePipe）" style="text;html=1;strokeColor=none;fillColor=none;align=left;verticalAlign=middle;whiteSpace=wrap;rounded=0;" vertex="1" parent="1">
          <mxGeometry x="1443" y="190" width="220" height="110" as="geometry" />
        </mxCell>
        <mxCell id="9qD8Qi3YVw1oicKCHrEl-32" value="" style="endArrow=none;dashed=1;html=1;dashPattern=1 3;strokeWidth=2;exitX=0.5;exitY=0;exitDx=0;exitDy=0;exitPerimeter=0;entryX=0.5;entryY=1;entryDx=0;entryDy=0;entryPerimeter=0;" edge="1" parent="1" source="9qD8Qi3YVw1oicKCHrEl-4" target="9qD8Qi3YVw1oicKCHrEl-26">
          <mxGeometry width="50" height="50" relative="1" as="geometry">
            <mxPoint x="370" y="475" as="sourcePoint" />
            <mxPoint x="430" y="365" as="targetPoint" />
          </mxGeometry>
        </mxCell>
        <mxCell id="9qD8Qi3YVw1oicKCHrEl-33" value="" style="endArrow=none;dashed=1;html=1;dashPattern=1 3;strokeWidth=2;exitX=0.5;exitY=1;exitDx=0;exitDy=0;exitPerimeter=0;entryX=0.456;entryY=0.117;entryDx=0;entryDy=0;entryPerimeter=0;" edge="1" parent="1" source="9qD8Qi3YVw1oicKCHrEl-24" target="9qD8Qi3YVw1oicKCHrEl-21">
          <mxGeometry width="50" height="50" relative="1" as="geometry">
            <mxPoint x="370" y="500" as="sourcePoint" />
            <mxPoint x="450" y="370" as="targetPoint" />
          </mxGeometry>
        </mxCell>
        <mxCell id="9qD8Qi3YVw1oicKCHrEl-34" value="" style="endArrow=none;dashed=1;html=1;dashPattern=1 3;strokeWidth=2;exitX=0.545;exitY=0.133;exitDx=0;exitDy=0;exitPerimeter=0;entryX=0.5;entryY=1;entryDx=0;entryDy=0;entryPerimeter=0;" edge="1" parent="1" source="9qD8Qi3YVw1oicKCHrEl-6" target="9qD8Qi3YVw1oicKCHrEl-28">
          <mxGeometry width="50" height="50" relative="1" as="geometry">
            <mxPoint x="1530" y="480" as="sourcePoint" />
            <mxPoint x="1610" y="350" as="targetPoint" />
          </mxGeometry>
        </mxCell>
        <mxCell id="9qD8Qi3YVw1oicKCHrEl-35" value="开始" style="text;html=1;strokeColor=none;fillColor=none;align=center;verticalAlign=middle;whiteSpace=wrap;rounded=0;" vertex="1" parent="1">
          <mxGeometry x="200" y="490" width="40" height="20" as="geometry" />
        </mxCell>
        <mxCell id="9qD8Qi3YVw1oicKCHrEl-36" value="完成" style="text;html=1;strokeColor=none;fillColor=none;align=center;verticalAlign=middle;whiteSpace=wrap;rounded=0;" vertex="1" parent="1">
          <mxGeometry x="200" y="610" width="40" height="20" as="geometry" />
        </mxCell>
      </root>
    </mxGraphModel>
  </diagram>
</mxfile>
